# xmcd CD database file
#
# Track frame offsets:
#	150
#	14122
#	25882
#	36322
#	51554
#	82113
#	116847
#	135090
#	151364
#	174219
#	199255
#	219775
#	272339
#
# Disc length: 3870 seconds
#
# Revision: 0
# Processed by: cddbd v1.5.2PL0 Copyright (c) Steve Scherf et al.
# Submitted via: CDex 1.51
#
DISCID=b00f1c0d
DTITLE=RADICS BÉLA Archiv Felvételei - Csodálatos Utazás
DYEAR=1900
DGENRE=Blues
TTITLE0=Két Barna Szem(Sakk-Matt)
TTITLE1=Fire(Sakk-Matt)
TTITLE2=Swlabr(Sakk-Matt)
TTITLE3=Zöld Csillag(Tûzkerék)
TTITLE4=Tqzkerék - Hey Joe(Tûzkerék)
TTITLE5=Red House(Tûzkerék)
TTITLE6=Ezer Mérfölbnyi Út(Taurusz EX T 25-75-82)
TTITLE7=Ki Arcán Csillagot Visel(Taurus EX T 25-75-82) 
TTITLE8=Gonosz Asszony(Aligátor)
TTITLE9=Csodálatos Utazás(Aligátor)
TTITLE10=Johnny B. Good(Tûzkerék)
TTITLE11=A Bika JegyébenTûzkerék)
TTITLE12=Guitar Boogie(Tûzkerék)
EXTD=
EXTT0=
EXTT1=
EXTT2=
EXTT3=
EXTT4=
EXTT5=
EXTT6=
EXTT7=
EXTT8=
EXTT9=
EXTT10=
EXTT11=
EXTT12=
PLAYORDER=
